<?xml version="1.0" encoding="utf-8"?>
<!-- Generator: Adobe Illustrator 24.0.2, SVG Export Plug-In . SVG Version: 6.00 Build 0)  -->
<svg version="1.1" xmlns="http://www.w3.org/2000/svg" xmlns:xlink="http://www.w3.org/1999/xlink" x="0px" y="0px"
	 viewBox="0 0 24 24" style="enable-background:new 0 0 24 24;" xml:space="preserve">
<style type="text/css">
	.st0{fill:none;}
	.st1{fill:#55bcb9;}
</style>
<g id="bounding_box">
	<rect class="st0" width="24" height="24"/>
</g>
<g id="design">
	<g>
		<path class="st1" d="M20.13,5.01c-1.63-0.21-6.16-0.96-7.6-1.86c-0.32-0.2-0.74-0.2-1.06,0c-1.44,0.9-5.97,1.65-7.6,1.86
			c-0.54,0.07-0.92,0.56-0.86,1.1l0.33,2.97c0.6,4.55,3.15,8.57,7,11.04l1.12,0.72C11.62,20.95,11.81,21,12,21s0.38-0.05,0.54-0.16
			l1.12-0.72c3.84-2.47,6.4-6.49,7-11.06l0.33-2.95C21.05,5.57,20.67,5.08,20.13,5.01z M16.71,9.71l-5,5C11.51,14.9,11.26,15,11,15
			s-0.51-0.1-0.71-0.29l-2-2c-0.39-0.39-0.39-1.03,0-1.42c0.39-0.39,1.03-0.39,1.42,0l1.29,1.3l4.29-4.3c0.39-0.39,1.03-0.39,1.42,0
			C17.1,8.68,17.1,9.32,16.71,9.71z"/>
	</g>
</g>
</svg>
